name winter_1987_slow_cadence_kinematics_mean_var_rad
datacolumns 19
datarows 43
range 0.5000000000 0.9200000000
endheader
time	q_pelvis_tx_mean	q_pelvis_tx_var	q_pelvis_ty_mean	q_pelvis_ty_var	q_pelvis_tilt_mean	q_pelvis_tilt_var	hip_flexion_r_mean	hip_flexion_r_var	knee_angle_r_mean	knee_angle_r_var	ankle_angle_r_mean	ankle_angle_r_var	hip_flexion_l_mean	hip_flexion_l_var	knee_angle_l_mean	knee_angle_l_var	ankle_angle_l_mean	ankle_angle_l_var
0.5000000000	0.0000000000	0.0000000000	0.0000000000	0.0000000000	0.0000000000	0.0000000000	-0.1813397093	0.0180138862	-0.2305579942	0.0077070949	0.1246165086	0.0043065592	0.2745402913	0.0149689305	-0.0652753140	0.0077993026	-0.0099483767	0.0034595096
0.5100000000	0.0000000000	0.0000000000	0.0000000000	0.0000000000	0.0000000000	0.0000000000	-0.1860520983	0.0181547108	-0.2502802147	0.0076917802	0.1107411410	0.0045976593	0.2654645792	0.0142934109	-0.0846484687	0.0080165862	-0.0296705973	0.0037743317
0.5200000000	0.0000000000	0.0000000000	0.0000000000	0.0000000000	0.0000000000	0.0000000000	-0.1907644872	0.0182960838	-0.2700024353	0.0076764808	0.0968657735	0.0048982786	0.2563888671	0.0136334877	-0.1040216234	0.0082368550	-0.0493928178	0.0041028616
0.5300000000	0.0000000000	0.0000000000	0.0000000000	0.0000000000	0.0000000000	0.0000000000	-0.1937315470	0.0183196992	-0.2967932393	0.0079075712	0.0751364243	0.0055021521	0.2461786910	0.0131087842	-0.1247037751	0.0086214041	-0.0706858347	0.0044218569
0.5400000000	0.0000000000	0.0000000000	0.0000000000	0.0000000000	0.0000000000	0.0000000000	-0.1966986067	0.0183433299	-0.3235840433	0.0081420886	0.0534070751	0.0061411176	0.2359685149	0.0125943768	-0.1453859267	0.0090147261	-0.0919788516	0.0047527933
0.5500000000	0.0000000000	0.0000000000	0.0000000000	0.0000000000	0.0000000000	0.0000000000	-0.1947787445	0.0181077084	-0.3602359576	0.0086863485	0.0237364778	0.0069164071	0.2269800692	0.0124381689	-0.1676388747	0.0096040465	-0.1023635606	0.0047648333
0.5600000000	0.0000000000	0.0000000000	0.0000000000	0.0000000000	0.0000000000	0.0000000000	-0.1928588823	0.0178736099	-0.3968878719	0.0092482153	-0.0059341195	0.0077377699	0.2179916236	0.0122829359	-0.1898918226	0.0102120248	-0.1127482697	0.0047768885
0.5700000000	0.0000000000	0.0000000000	0.0000000000	0.0000000000	0.0000000000	0.0000000000	-0.1832595715	0.0172950272	-0.4455825580	0.0100014733	-0.0419751685	0.0083162459	0.2102249084	0.0124771295	-0.2117957047	0.0108750323	-0.1079486142	0.0047407685
0.5800000000	0.0000000000	0.0000000000	0.0000000000	0.0000000000	0.0000000000	0.0000000000	-0.1736602606	0.0167259637	-0.4942772442	0.0107842182	-0.0780162176	0.0089155731	0.2024581932	0.0126728462	-0.2336995868	0.0115588908	-0.1031489588	0.0047047856
0.5900000000	0.0000000000	0.0000000000	0.0000000000	0.0000000000	0.0000000000	0.0000000000	-0.1562942345	0.0160556531	-0.5530075735	0.0115401339	-0.1167625270	0.0087189121	0.1932952147	0.0130489040	-0.2504547477	0.0121671508	-0.0880518608	0.0045151917
0.6000000000	0.0000000000	0.0000000000	0.0000000000	0.0000000000	0.0000000000	0.0000000000	-0.1389282085	0.0153990503	-0.6117379028	0.0123216528	-0.1555088364	0.0085244443	0.1841322361	0.0134304602	-0.2672099085	0.0127910073	-0.0729547627	0.0043294969
0.6100000000	0.0000000000	0.0000000000	0.0000000000	0.0000000000	0.0000000000	0.0000000000	-0.1154535300	0.0148198279	-0.6748315553	0.0125747975	-0.1922480171	0.0075091926	0.1718276649	0.0138380383	-0.2749766237	0.0132892472	-0.0555887367	0.0041364685
0.6200000000	0.0000000000	0.0000000000	0.0000000000	0.0000000000	0.0000000000	0.0000000000	-0.0919788516	0.0142517088	-0.7379252077	0.0128305162	-0.2289871979	0.0065582912	0.1595230936	0.0142517088	-0.2827433388	0.0137970063	-0.0382227106	0.0039478418
0.6300000000	0.0000000000	0.0000000000	0.0000000000	0.0000000000	0.0000000000	0.0000000000	-0.0654498469	0.0138791312	-0.7976154682	0.0125161510	-0.2564761336	0.0059780864	0.1455604596	0.0145659597	-0.2827433388	0.0140855095	-0.0231256126	0.0037958072
0.6400000000	0.0000000000	0.0000000000	0.0000000000	0.0000000000	0.0000000000	0.0000000000	-0.0389208423	0.0135114884	-0.8573057286	0.0122056849	-0.2839650693	0.0054247489	0.1315978256	0.0148836376	-0.2827433388	0.0143769979	-0.0080285146	0.0036467579
0.6500000000	0.0000000000	0.0000000000	0.0000000000	0.0000000000	0.0000000000	0.0000000000	-0.0119555054	0.0130688489	-0.9076584775	0.0114652590	-0.2951351765	0.0061137935	0.1186823891	0.0149262536	-0.2788163480	0.0142517088	0.0043633231	0.0035110280
0.6600000000	0.0000000000	0.0000000000	0.0000000000	0.0000000000	0.0000000000	0.0000000000	0.0150098316	0.0126335810	-0.9580112264	0.0107479992	-0.3063052837	0.0068440223	0.1057669527	0.0149689305	-0.2748893572	0.0141269679	0.0167551608	0.0033778721
0.6700000000	0.0000000000	0.0000000000	0.0000000000	0.0000000000	0.0000000000	0.0000000000	0.0406661716	0.0119753942	-0.9950994730	0.0100539056	-0.2983640356	0.0080635353	0.0945095790	0.0147561552	-0.2689552377	0.0135724195	0.0269653369	0.0032572436
0.6800000000	0.0000000000	0.0000000000	0.0000000000	0.0000000000	0.0000000000	0.0000000000	0.0663225116	0.0113348142	-1.0321877196	0.0093829781	-0.2904227875	0.0093829781	0.0832522053	0.0145449030	-0.2630211183	0.0130289744	0.0371755131	0.0031388084
0.6900000000	0.0000000000	0.0000000000	0.0000000000	0.0000000000	0.0000000000	0.0000000000	0.0894481242	0.0106037324	-1.0546152005	0.0094676998	-0.2673844414	0.0097758508	0.0721693646	0.0142308805	-0.2550798702	0.0122442800	0.0453785606	0.0029462901
0.7000000000	0.0000000000	0.0000000000	0.0000000000	0.0000000000	0.0000000000	0.0000000000	0.1125737368	0.0098970200	-1.0770426814	0.0095528023	-0.2443460953	0.0101767806	0.0610865238	0.0139202850	-0.2471386221	0.0114839549	0.0535816080	0.0027598643
0.7100000000	0.0000000000	0.0000000000	0.0000000000	0.0000000000	0.0000000000	0.0000000000	0.1334304213	0.0094507250	-1.0843730643	0.0104961720	-0.2136283004	0.0098796644	0.0496546172	0.0136742760	-0.2378883770	0.0107299125	0.0598647933	0.0025706740
0.7200000000	0.0000000000	0.0000000000	0.0000000000	0.0000000000	0.0000000000	0.0000000000	0.1542871059	0.0090147261	-1.0917034471	0.0114839549	-0.1829105056	0.0095869499	0.0382227106	0.0134304602	-0.2286381320	0.0100014733	0.0661479787	0.0023882006
0.7300000000	0.0000000000	0.0000000000	0.0000000000	0.0000000000	0.0000000000	0.0000000000	0.1734857276	0.0088005876	-1.0848966630	0.0130489040	-0.1517563785	0.0093491960	0.0273144028	0.0132490377	-0.2193878870	0.0093323278	0.0710349006	0.0022702832
0.7400000000	0.0000000000	0.0000000000	0.0000000000	0.0000000000	0.0000000000	0.0000000000	0.1926843494	0.0085890232	-1.0780898790	0.0147137829	-0.1206022513	0.0091144274	0.0164060950	0.0130688489	-0.2101376419	0.0086863485	0.0759218225	0.0021553510
0.7500000000	0.0000000000	0.0000000000	0.0000000000	0.0000000000	0.0000000000	0.0000000000	0.2103121749	0.0084922463	-1.0584549249	0.0165908050	-0.0935496479	0.0089320605	0.0068067841	0.0129494084	-0.2019345945	0.0081263474	0.0801978791	0.0021230616
0.7600000000	0.0000000000	0.0000000000	0.0000000000	0.0000000000	0.0000000000	0.0000000000	0.2279400003	0.0083960176	-1.0388199708	0.0185804746	-0.0664970445	0.0087515366	-0.0027925268	0.0128305162	-0.1937315470	0.0075850042	0.0844739358	0.0020910158
0.7700000000	0.0000000000	0.0000000000	0.0000000000	0.0000000000	0.0000000000	0.0000000000	0.2431243648	0.0084601091	-1.0077531101	0.0205574797	-0.0449422282	0.0083003373	-0.0118682389	0.0128305162	-0.1865756970	0.0071949416	0.0888372589	0.0021230616
0.7800000000	0.0000000000	0.0000000000	0.0000000000	0.0000000000	0.0000000000	0.0000000000	0.2583087293	0.0085244443	-0.9766862494	0.0226344146	-0.0233874120	0.0078610790	-0.0209439510	0.0128305162	-0.1794198471	0.0068151751	0.0932005821	0.0021553510
0.7900000000	0.0000000000	0.0000000000	0.0000000000	0.0000000000	0.0000000000	0.0000000000	0.2705260341	0.0085890232	-0.9356710120	0.0242101472	-0.0072431164	0.0071949416	-0.0302814625	0.0129295549	-0.1729621289	0.0066291528	0.0975639052	0.0022371408
0.8000000000	0.0000000000	0.0000000000	0.0000000000	0.0000000000	0.0000000000	0.0000000000	0.2827433388	0.0086538458	-0.8946557746	0.0258388985	0.0089011792	0.0065582912	-0.0396189740	0.0130289744	-0.1665044106	0.0064457046	0.1019272283	0.0023204537
0.8100000000	0.0000000000	0.0000000000	0.0000000000	0.0000000000	0.0000000000	0.0000000000	0.2920808503	0.0085083377	-0.8450011574	0.0267730154	0.0183259571	0.0060593279	-0.0489564855	0.0132289558	-0.1611811564	0.0064597246	0.1058542191	0.0024310374
0.8200000000	0.0000000000	0.0000000000	0.0000000000	0.0000000000	0.0000000000	0.0000000000	0.3014183618	0.0083640633	-0.7953465401	0.0277237188	0.0277507351	0.0055801037	-0.0582939970	0.0134304602	-0.1558579022	0.0064737599	0.1097812100	0.0025441952
0.8300000000	0.0000000000	0.0000000000	0.0000000000	0.0000000000	0.0000000000	0.0000000000	0.3083996788	0.0082210225	-0.7388851388	0.0279858801	0.0288851991	0.0052589228	-0.0671079097	0.0137560353	-0.1518436449	0.0066007625	0.1134464014	0.0026509331
0.8400000000	0.0000000000	0.0000000000	0.0000000000	0.0000000000	0.0000000000	0.0000000000	0.3153809958	0.0080792155	-0.6824237375	0.0282492752	0.0300196631	0.0049472611	-0.0759218225	0.0140855095	-0.1478293876	0.0067289988	0.1171115928	0.0027598643
0.8500000000	0.0000000000	0.0000000000	0.0000000000	0.0000000000	0.0000000000	0.0000000000	0.3193952531	0.0081736165	-0.6203772826	0.0277527869	0.0246964089	0.0048010447	-0.0836885376	0.0145028354	-0.1457349925	0.0069309297	0.1210385836	0.0028523157
0.8600000000	0.0000000000	0.0000000000	0.0000000000	0.0000000000	0.0000000000	0.0000000000	0.3234095104	0.0082685657	-0.5583308277	0.0272607003	0.0193731547	0.0046570216	-0.0914552528	0.0149262536	-0.1436405974	0.0071358458	0.1249655744	0.0029462901
0.8700000000	0.0000000000	0.0000000000	0.0000000000	0.0000000000	0.0000000000	0.0000000000	0.3235840433	0.0085405662	-0.4924446485	0.0257828184	0.0118682389	0.0046808731	-0.0986983692	0.0153125389	-0.1434660645	0.0073287981	0.1293288976	0.0030998173
0.8800000000	0.0000000000	0.0000000000	0.0000000000	0.0000000000	0.0000000000	0.0000000000	0.3237585762	0.0088169684	-0.4265584692	0.0243461208	0.0043633231	0.0047047856	-0.1059414856	0.0157037591	-0.1432915316	0.0075243244	0.1336922207	0.0032572436
0.8900000000	0.0000000000	0.0000000000	0.0000000000	0.0000000000	0.0000000000	0.0000000000	0.3204424507	0.0090811327	-0.3608468228	0.0219051605	-0.0007853982	0.0048252618	-0.1130973355	0.0158792187	-0.1446005285	0.0076002122	0.1376192115	0.0034595096
0.9000000000	0.0000000000	0.0000000000	0.0000000000	0.0000000000	0.0000000000	0.0000000000	0.3171263251	0.0093491960	-0.2951351765	0.0195931143	-0.0059341195	0.0049472611	-0.1202531855	0.0160556531	-0.1459095255	0.0076764808	0.1415462023	0.0036678679
0.9100000000	0.0000000000	0.0000000000	0.0000000000	0.0000000000	0.0000000000	0.0000000000	0.3117158044	0.0095869499	-0.2359685149	0.0164561946	-0.0068940505	0.0050211917	-0.1272345025	0.0161886186	-0.1489638517	0.0076611966	0.1443387291	0.0037743317
0.9200000000	0.0000000000	0.0000000000	0.0000000000	0.0000000000	0.0000000000	0.0000000000	0.3063052837	0.0098276890	-0.1768018532	0.0135927604	-0.0078539816	0.0050956707	-0.1342158195	0.0163221324	-0.1520181778	0.0076459277	0.1471312559	0.0038823186
